<svg width="38" height="36" viewBox="0 0 38 36" fill="none" xmlns="http://www.w3.org/2000/svg">
<path fill-rule="evenodd" clip-rule="evenodd" d="M14.9714 35.5317C10.6414 34.4247 5.81342 31.3237 5.81342 29.6497C5.81342 27.4087 10.7134 21.1357 16.0854 16.5017L19.1074 13.8937L20.4624 14.8377C22.5914 16.3207 29.4034 23.3767 30.9274 25.6777C33.4004 29.4107 33.2904 30.2427 30.0094 32.6037C26.0534 35.4517 19.5844 36.7107 14.9714 35.5317ZM3.76242 27.8207C0.939422 23.6737 0.0324223 16.8457 1.71542 12.4127C2.75842 9.66768 5.21642 5.92868 6.55542 5.05168C7.52242 4.41769 7.70842 4.42469 9.03842 5.14069C9.82942 5.56668 11.4804 6.81468 12.7074 7.91368L14.9374 9.91068L12.5494 12.8697C7.74942 18.8137 4.05242 26.2327 4.76842 28.4857C5.12842 29.6227 4.87542 29.4557 3.76242 27.8207ZM33.6334 27.6917C33.5854 24.2237 30.8714 18.9837 25.9584 12.8737L23.5834 9.91969L25.7134 7.96569C26.8844 6.89069 28.5484 5.63269 29.4114 5.17069L30.9804 4.33069L32.7184 6.02469C33.6734 6.95669 35.0694 8.96169 35.8194 10.4817C36.9934 12.8617 37.2024 13.7867 37.3294 17.1697C37.4984 21.7067 36.8084 24.6357 34.8944 27.4937L33.6564 29.3447L33.6334 27.6917ZM17.1314 5.13769C16.1964 4.58469 14.2334 3.80769 12.7684 3.41069C11.3034 3.01469 10.1914 2.55069 10.2964 2.37969C10.4024 2.20969 11.8434 1.63469 13.5004 1.10169C17.8374 -0.293311 22.9694 0.0146885 26.7944 1.89769C28.2824 2.62969 29.0984 3.13169 28.6084 3.01269C27.5154 2.74769 22.7534 4.18969 20.8474 5.36369C19.1744 6.39469 19.2624 6.39969 17.1314 5.13769Z" fill="white"/>
</svg>
